# xmcd CD database file
#
# Track frame offsets:
#	150
#	25735
#	49193
#	73738
#	102683
#	133975
#	160833
#	194263
#	225980
#	256888
#	296975
#
# Disc length: 4508 seconds
#
# Revision: 0
# Processed by: cddbd v1.5PL3 Copyright (c) Steve Scherf et al.
# Submitted via: CDex 1.51
#
DISCID=a3119a0b
DTITLE=John Coltrane - Mating Call/Cattin' With Coltrane And Quinichette
DYEAR=1900
DGENRE=Jazz
TTITLE0=Mating Call
TTITLE1=gnid
TTITLE2=soultrane
TTITLE3=on e misty night
TTITLE4=romas
TTITLE5=super jet
TTITLE6=cattin'
TTITLE7=sunday
TTITLE8=exactly like you
TTITLE9=anatomy
TTITLE10=vodka
EXTD=
EXTT0=
EXTT1=
EXTT2=
EXTT3=
EXTT4=
EXTT5=
EXTT6=
EXTT7=
EXTT8=
EXTT9=
EXTT10=
PLAYORDER=
